name C:\Users\r0593348\3dpredictsim\Results\Batchsim_tmt_linear_v2\Pog_s1_tmt_bCst_d02_k500_ig24_pas.mot
datacolumns 128
datarows 4
range 1.64541091 1.67831913
endheader
time	pelvis_tilt	pelvis_list	pelvis_rotation	pelvis_tx	pelvis_ty	pelvis_tz	hip_flexion_l	hip_adduction_l	hip_rotation_l	hip_flexion_r	hip_adduction_r	hip_rotation_r	knee_angle_l	knee_angle_r	ankle_angle_l	ankle_angle_r	subtalar_angle_l	subtalar_angle_r	tmt_angle_l	tmt_angle_r	mtp_angle_l	mtp_angle_r	lumbar_extension	lumbar_bending	lumbar_rotation	arm_flex_l	arm_add_l	arm_rot_l	arm_flex_r	arm_add_r	arm_rot_r	elbow_flex_l	elbow_flex_r	pro_sup_l	pro_sup_r	glut_med1_l/activation	glut_med2_l/activation	glut_med3_l/activation	glut_min1_l/activation	glut_min2_l/activation	glut_min3_l/activation	semimem_l/activation	semiten_l/activation	bifemlh_l/activation	bifemsh_l/activation	sar_l/activation	add_long_l/activation	add_brev_l/activation	add_mag1_l/activation	add_mag2_l/activation	add_mag3_l/activation	tfl_l/activation	pect_l/activation	grac_l/activation	glut_max1_l/activation	glut_max2_l/activation	glut_max3_l/activation	iliacus_l/activation	psoas_l/activation	quad_fem_l/activation	gem_l/activation	peri_l/activation	rect_fem_l/activation	vas_med_l/activation	vas_int_l/activation	vas_lat_l/activation	med_gas_l/activation	lat_gas_l/activation	soleus_l/activation	tib_post_l/activation	flex_dig_l/activation	flex_hal_l/activation	tib_ant_l/activation	per_brev_l/activation	per_long_l/activation	per_tert_l/activation	ext_dig_l/activation	ext_hal_l/activation	ercspn_l/activation	intobl_l/activation	extobl_l/activation	glut_med1_r/activation	glut_med2_r/activation	glut_med3_r/activation	glut_min1_r/activation	glut_min2_r/activation	glut_min3_r/activation	semimem_r/activation	semiten_r/activation	bifemlh_r/activation	bifemsh_r/activation	sar_r/activation	add_long_r/activation	add_brev_r/activation	add_mag1_r/activation	add_mag2_r/activation	add_mag3_r/activation	tfl_r/activation	pect_r/activation	grac_r/activation	glut_max1_r/activation	glut_max2_r/activation	glut_max3_r/activation	iliacus_r/activation	psoas_r/activation	quad_fem_r/activation	gem_r/activation	peri_r/activation	rect_fem_r/activation	vas_med_r/activation	vas_int_r/activation	vas_lat_r/activation	med_gas_r/activation	lat_gas_r/activation	soleus_r/activation	tib_post_r/activation	flex_dig_r/activation	flex_hal_r/activation	tib_ant_r/activation	per_brev_r/activation	per_long_r/activation	per_tert_r/activation	ext_dig_r/activation	ext_hal_r/activation	ercspn_r/activation	intobl_r/activation	extobl_r/activation	
          1.64541091	         -2.89919042	         -1.10466530	         -5.17708679	          2.05676364	          0.87095948	          0.00308914	         26.72932150	         -0.34769933	         -1.78753469	        -17.52606853	          1.44989220	          7.48848974	         -8.17930051	         -8.23940849	          5.87239148	        -10.97081823	          3.02946639	          9.16748781	          0.06798127	          2.01395632	         -0.08423166	         28.27697232	          0.36462677	          2.91858376	          1.68430173	        -10.35580342	        -13.47462002	         10.83201277	          3.29879450	        -13.50267315	         12.36620117	         18.20909498	         30.39806493	         86.51662706	         86.51662706	          0.11231320	          0.05001190	          0.12802524	          0.05000156	          0.05000214	          0.05001655	          0.05914137	          0.05914136	          0.07643386	          0.05000179	          0.05001489	          0.06334955	          0.11134924	          0.10387310	          0.19329452	          0.15806886	          0.05000087	          0.05005650	          0.05913545	          0.06993971	          0.14466520	          0.16360203	          0.05000075	          0.05000050	          0.12926416	          0.05000522	          0.05001233	          0.05000037	          0.10813245	          0.13910317	          0.07173643	          0.05914112	          0.05914102	          0.05914116	          0.05000091	          0.05914122	          0.05914120	          0.52872748	          0.31704900	          0.18718618	          0.32613495	          0.52272050	          0.30288200	          0.05000008	          0.11576974	          0.11576219	          0.26199759	          0.08549416	          0.05102552	          0.22794286	          0.15079577	          0.08303710	          0.05000199	          0.05000031	          0.05000028	          0.05000039	          0.07556866	          0.14256426	          0.07840326	          0.05002605	          0.05000649	          0.05000079	          0.21444740	          0.11575158	          0.05001341	          0.05000340	          0.05000180	          0.05000159	          0.29110150	          0.55740743	          0.05000195	          0.05000169	          0.05000049	          0.21698425	          0.13692186	          0.13692447	          0.07791245	          0.16100276	          0.23854596	          0.19239233	          0.18418028	          0.19265594	          0.23820456	          0.05000003	          0.09571819	          0.15740243	          0.05000020	          0.05000006	          0.05000019	          0.05000009	          0.05000021	          0.05000135	
          1.65638032	         -2.87277701	         -1.12182557	         -5.30355157	          2.07435291	          0.86953118	          0.00291516	         26.17508560	         -0.12164736	         -1.56675857	        -17.14980919	          1.30462519	          7.23284975	         -8.33001342	        -10.72475295	          5.18353799	        -11.67757490	          2.54564513	         10.41872125	          0.08703800	          1.73004990	         -0.07511709	         28.71144950	          0.61231692	          2.68597845	          1.74182427	        -11.59518249	        -13.48257417	         10.60981591	          2.95935232	        -13.54671672	         12.66747566	         18.23071083	         31.32585600	         86.51662706	         86.51662706	          0.09495369	          0.05000168	          0.15155810	          0.05000091	          0.05000084	          0.05000056	          0.05000020	          0.05000028	          0.06461988	          0.05000009	          0.05000025	          0.08274255	          0.11574180	          0.26476129	          0.26028408	          0.16317947	          0.05000093	          0.05002342	          0.05000131	          0.05914214	          0.17223142	          0.19594489	          0.05000012	          0.05000023	          0.25067033	          0.06994715	          0.08241489	          0.06995444	          0.31816984	          0.33781381	          0.26214124	          0.05000000	          0.05000002	          0.05000000	          0.05000007	          0.05000056	          0.05000033	          0.65014584	          0.31630080	          0.18027886	          0.61074780	          0.58875247	          0.36648468	          0.05000003	          0.09787577	          0.09786939	          0.22150192	          0.07227978	          0.05000208	          0.19271093	          0.12748807	          0.07020254	          0.05000270	          0.05000021	          0.05000025	          0.05000013	          0.06388856	          0.20313536	          0.26808435	          0.20483741	          0.05009812	          0.10553742	          0.18130138	          0.09786249	          0.05000060	          0.05001965	          0.05002141	          0.05005982	          0.24610736	          0.47125203	          0.05979697	          0.05915919	          0.05914105	          0.18344604	          0.11576272	          0.11576290	          0.11576258	          0.13611733	          0.20167506	          0.16265516	          0.15571246	          0.16287828	          0.20138655	          0.05000012	          0.08092363	          0.13307362	          0.05000020	          0.11835527	          0.05000067	          0.06009364	          0.07837602	          0.06995337	
          1.66734973	         -2.84038514	         -1.11805968	         -5.40571458	          2.09206970	          0.86783797	          0.00275513	         25.50579267	          0.06873943	         -1.29394658	        -16.67182162	          1.15849102	          6.96602172	         -9.00443080	        -13.40237651	          4.46546406	        -12.20454764	          2.04112314	         11.60580010	         -0.07230587	          1.34990461	         -0.13419666	         28.44228554	          0.86470145	          2.42195719	          1.78802312	        -12.80504515	        -13.50650450	         10.49050871	          2.57666087	        -13.59711305	         12.92604841	         18.20542869	         32.24724302	         86.51662706	         86.51662706	          0.28892731	          0.24475334	          0.31494334	          0.05000368	          0.05000213	          0.17829942	          0.07727473	          0.09670546	          0.08522135	          0.05000050	          0.05001642	          0.06995369	          0.09785228	          0.22383856	          0.22005386	          0.17596519	          0.05000060	          0.06348766	          0.05000798	          0.05000118	          0.18123620	          0.16785663	          0.05008286	          0.05000120	          0.21192548	          0.05913612	          0.13734610	          0.05914193	          0.26899189	          0.28559959	          0.22162336	          0.05914119	          0.05914122	          0.05914116	          0.05000014	          0.05914117	          0.05914113	          0.54965593	          0.34712584	          0.17632702	          0.51634755	          0.60235853	          0.30983905	          0.05000004	          0.08274759	          0.08274219	          0.18760439	          0.06110788	          0.05000026	          0.16292467	          0.10778293	          0.05935177	          0.05000866	          0.05000188	          0.05001890	          0.05000017	          0.05401389	          0.18302714	          0.41970306	          0.17317802	          0.05918313	          0.08922591	          0.15327862	          0.08278400	          0.05914246	          0.05001018	          0.05002190	          0.05914094	          0.20806775	          0.41502524	          0.05914114	          0.05001617	          0.05000031	          0.15509166	          0.09786987	          0.09787002	          0.09786975	          0.11507833	          0.17050313	          0.13751433	          0.13164477	          0.13770317	          0.17025931	          0.08618635	          0.11965316	          0.11468304	          0.08036285	          0.21341815	          0.11903793	          0.07057173	          0.06626182	          0.05914119	
          1.67831913	         -2.80539466	         -1.10041116	         -5.48210793	          2.10968590	          0.86592461	          0.00259010	         24.71621193	          0.24937826	         -0.99435917	        -16.09008932	          1.01725347	          6.69524636	         -9.70044421	        -16.23480707	          3.97210708	        -12.45816075	          1.49291674	         12.69088212	         -0.00513376	          0.92295194	         -0.17092527	         27.14619277	          1.10239117	          2.13871757	          1.82424639	        -13.93628491	        -13.54195197	         10.48798431	          2.19351637	        -13.65517634	         13.16581198	         18.10464297	         33.13283909	         86.51662706	         86.51662706	          0.35415274	          0.40547786	          0.49803427	          0.21810128	          0.23398668	          0.38523616	          0.06533084	          0.08175975	          0.07204927	          0.06995326	          0.05000084	          0.05914138	          0.08272779	          0.18924106	          0.18604246	          0.18098743	          0.05000047	          0.05367613	          0.06995499	          0.26226205	          0.23614515	          0.19817108	          0.05000020	          0.05000019	          0.17916928	          0.05000183	          0.27900446	          0.05000067	          0.22741528	          0.24145621	          0.18736825	          0.05000006	          0.05000011	          0.05000001	          0.05000002	          0.05000021	          0.05000015	          0.72070814	          0.29347230	          0.14907302	          0.71555246	          0.64424387	          0.48596489	          0.06009792	          0.06995770	          0.06995313	          0.15860782	          0.05166282	          0.05000011	          0.19698191	          0.09112361	          0.05017825	          0.05002080	          0.05000036	          0.05000035	          0.05000059	          0.05914321	          0.15473798	          0.35483165	          0.14641091	          0.05003595	          0.07543494	          0.12958728	          0.06998886	          0.05000193	          0.05000170	          0.05000091	          0.05000074	          0.17590775	          0.36655746	          0.05000019	          0.05000058	          0.05000028	          0.13111988	          0.08274263	          0.08274275	          0.08274253	          0.09729123	          0.14414930	          0.11625940	          0.11129713	          0.11641928	          0.14394326	          0.10444043	          0.10117029	          0.09695721	          0.18371305	          0.27632389	          0.19012908	          0.10525430	          0.05602005	          0.05000009	
